<?xml version="1.0" standalone="no"?>
<!DOCTYPE svg PUBLIC "-//W3C//DTD SVG 20010904//EN"
 "http://www.w3.org/TR/2001/REC-SVG-20010904/DTD/svg10.dtd">
<svg version="1.0" xmlns="http://www.w3.org/2000/svg"
 width="161.000000pt" height="161.000000pt" viewBox="0 0 161.000000 161.000000"
 preserveAspectRatio="xMidYMid meet">
<metadata>
Created by potrace 1.11, written by Peter Selinger 2001-2013
</metadata>
<g transform="translate(0.000000,161.000000) scale(0.100000,-0.100000)"
fill="#000000" stroke="none">
<path d="M1 1258 c1 -213 5 -334 9 -306 53 313 335 595 648 648 28 4 -93 8
-305 9 l-353 1 1 -352z"/>
<path d="M952 1600 c118 -20 259 -87 364 -172 142 -115 255 -304 284 -476 4
-28 8 93 9 306 l1 352 -352 -1 c-213 -1 -334 -5 -306 -9z"/>
<path d="M655 1515 c-335 -74 -575 -370 -575 -710 0 -398 327 -725 725 -725
398 0 725 327 725 725 0 402 -331 729 -733 724 -45 -1 -109 -7 -142 -14z m179
-114 l18 -39 -173 -298 c-95 -165 -199 -344 -231 -399 l-59 -100 316 -3 c173
-1 315 -4 315 -7 0 -2 -8 -20 -17 -40 l-17 -35 -368 0 c-203 0 -367 3 -365 8
3 4 109 189 237 412 311 542 310 540 319 540 4 0 16 -17 25 -39z m234 -406
c82 -143 181 -316 221 -384 39 -69 71 -126 71 -128 0 -2 -21 -3 -47 -2 l-48 0
-86 152 -85 152 -227 3 c-125 1 -227 6 -227 10 0 4 9 22 20 40 l20 32 180 0
c99 0 180 2 180 4 0 2 -40 75 -89 161 l-89 157 20 35 c11 18 24 33 29 31 5 -2
76 -120 157 -263z"/>
<path d="M1 353 l-1 -353 353 1 c212 1 333 5 305 9 -313 53 -595 335 -648 648
-4 28 -8 -93 -9 -305z"/>
<path d="M1600 671 c0 -85 -84 -269 -172 -377 -115 -142 -304 -255 -476 -284
-28 -4 93 -8 306 -9 l352 -1 0 350 c0 193 -2 350 -5 350 -3 0 -5 -13 -5 -29z"/>
</g>
</svg>
